/vscmnt/brussel_pixiu_data/_data_brussel/112/vsc11236/PredSimResults/SUBJ11mtu3D/weighted-expIG/worker_02.mot
version=1
nRows=11
nColumns=50
inDegrees=yes
endheader
                time	         pelvis_tilt	         pelvis_list	     pelvis_rotation	           pelvis_tx	           pelvis_ty	           pelvis_tz	       hip_flexion_r	     hip_adduction_r	      hip_rotation_r	        knee_angle_r	       ankle_angle_r	         mtp_angle_r	       hip_flexion_l	     hip_adduction_l	      hip_rotation_l	        knee_angle_l	       ankle_angle_l	         mtp_angle_l	    lumbar_extension	      lumbar_bending	     lumbar_rotation	 ercspn_r/activation	 intobl_r/activation	 extobl_r/activation	    abd_r/activation	    add_r/activation	hamstrings_r/activation	bifemsh_r/activation	glut_max_r/activation	iliopsoas_r/activation	rect_fem_r/activation	  vasti_r/activation	gastroc_r/activation	 soleus_r/activation	tib_ant_r/activation	 ercspn_l/activation	 intobl_l/activation	 extobl_l/activation	    abd_l/activation	    add_l/activation	hamstrings_l/activation	bifemsh_l/activation	glut_max_l/activation	iliopsoas_l/activation	rect_fem_l/activation	  vasti_l/activation	gastroc_l/activation	 soleus_l/activation	tib_ant_l/activation	
          0.70767342	         -6.11034534	          4.87298131	         -8.38125636	          0.73598036	          0.93915785	          0.01739291	        -12.30592382	         -5.46053134	          3.99892906	         -8.23885748	         12.13742104	         28.19497070	         31.33238582	          1.26812794	         -4.59518626	         -4.83713356	          5.15960918	          0.23264640	         -3.91055294	         -3.27179840	          2.17647510	          0.05494425	          0.00999999	          0.01000000	          0.04404142	          0.02532190	          0.02229079	          0.11349966	          0.04404142	          0.42688233	          0.01000001	          0.01000000	          0.32215807	          0.25056231	          0.00999999	          0.07958106	          0.11532748	          0.02333033	          0.01046809	          0.12429703	          0.04009218	          0.18651454	          0.04811405	          0.08313847	          0.01000000	          0.00999999	          0.01500701	          0.00999999	          0.28338522	
          0.72182689	         -6.22909964	          4.72005576	         -8.39825187	          0.75425827	          0.93715986	          0.01659896	        -12.45288010	         -5.38401086	          3.61476651	         -9.77630883	         11.51884887	         30.25529368	         31.24421343	          1.29488838	         -4.65558884	         -6.33231556	          4.75140425	          0.18871296	         -3.59192286	         -3.54960857	          2.36843867	          0.06945999	          0.00999999	          0.01000000	          0.03563536	          0.03426205	          0.02261407	          0.09183629	          0.03563536	          0.41475282	          0.01000000	          0.02333029	          0.29109546	          0.23279372	          0.00999999	          0.06439164	          0.11736918	          0.01887734	          0.02391419	          0.10294529	          0.05119716	          0.15091503	          0.07607014	          0.06727006	          0.01000000	          0.00999999	          0.01529577	          0.01235890	          0.31370112	
          0.73598036	         -6.32511887	          4.56170936	         -8.36113416	          0.77275943	          0.93564074	          0.01570459	        -12.40493366	         -5.29166199	          3.20101842	        -11.69767902	         10.71574009	         32.39553049	         30.98344697	          1.31496142	         -4.73842123	         -7.58100685	          4.17079736	          0.17890323	         -3.27987503	         -3.83435797	          2.53523311	          0.09903697	          0.00999999	          0.00999999	          0.02883373	          0.03382226	          0.02184760	          0.07430776	          0.02883374	          0.39975644	          0.01233150	          0.01887732	          0.23553488	          0.19396480	          0.00999999	          0.07737541	          0.09496725	          0.01527427	          0.09623788	          0.13059689	          0.05163165	          0.12211030	          0.08969542	          0.05443041	          0.00999999	          0.00999999	          0.01237631	          0.00999999	          0.35463055	
          0.75013383	         -6.39740907	          4.39725230	         -8.27363354	          0.79119555	          0.93481686	          0.01471647	        -12.06211947	         -5.18013273	          2.76631944	        -14.14148139	          9.72199251	         34.52499600	         30.64407681	          1.34189719	         -4.83980180	         -8.71589911	          3.55385631	          0.13726691	         -2.99991385	         -4.12558620	          2.67318113	          0.13029462	          0.00999999	          0.00999999	          0.02333032	          0.05399048	          0.01875957	          0.06012484	          0.02333032	          0.37398549	          0.01000002	          0.01527425	          0.19057898	          0.15694327	          0.00999999	          0.08165148	          0.07684111	          0.01235891	          0.13416850	          0.15846015	          0.04658413	          0.09880345	          0.11287171	          0.04404142	          0.01000000	          0.02340810	          0.01001408	          0.01000013	          0.38331285	
          0.76428730	         -6.44384958	          4.22805974	         -8.13932985	          0.80939967	          0.93475522	          0.01365927	        -11.36525175	         -5.05134813	          2.30474809	        -17.18337211	          8.52601006	         36.51068003	         30.26129919	          1.37542404	         -4.95246136	         -9.84206701	          3.14751729	          0.10569246	         -2.76124437	         -4.42443925	          2.77774619	          0.14239131	          0.00999999	          0.00999999	          0.01887732	          0.07168820	          0.02601521	          0.04864898	          0.01887733	          0.33140606	          0.01000000	          0.01235890	          0.15420370	          0.12698794	          0.00999999	          0.08003084	          0.06217466	          0.01000000	          0.14550262	          0.15051241	          0.04745668	          0.07994511	          0.11084930	          0.03563536	          0.01000000	          0.06767486	          0.01000000	          0.00999999	          0.40162355	
          0.77844076	         -6.46500677	          4.04583984	         -7.96165910	          0.82727834	          0.93543540	          0.01256474	        -10.31025821	         -4.90385211	          1.80923253	        -20.80010315	          7.14022188	         38.08543901	         29.79499155	          1.40901146	         -5.05314503	        -10.86087891	          2.87812356	          0.07933479	         -2.56806705	         -4.72171159	          2.84683316	          0.14745278	          0.00999999	          0.01000000	          0.01527426	          0.08736304	          0.02167691	          0.04169432	          0.01527426	          0.27841396	          0.00999999	          0.00999999	          0.12477126	          0.10275010	          0.00999999	          0.07065276	          0.05030756	          0.00999999	          0.14479867	          0.12178452	          0.04873700	          0.06468621	          0.10815384	          0.02883374	          0.00999999	          0.12319964	          0.01000000	          0.01000000	          0.40356615	
          0.79259423	         -6.46370286	          3.84062399	         -7.74434336	          0.84475175	          0.93686465	          0.01146589	         -8.92055090	         -4.73970119	          1.27192154	        -24.91909818	          5.64989163	         38.79649637	         29.19753859	          1.43948255	         -5.09984701	        -11.67948572	          2.75924695	          0.05738140	         -2.42557902	         -5.00654735	          2.88030874	          0.15684599	          0.00999999	          0.01000000	          0.01235891	          0.09583366	          0.01753950	          0.05693931	          0.01235891	          0.22527386	          0.00999999	          0.00999999	          0.10095651	          0.08313847	          0.00999999	          0.05723422	          0.04070549	          0.00999999	          0.13542066	          0.09853985	          0.04488109	          0.05233973	          0.10510331	          0.02333032	          0.00999999	          0.16396779	          0.01000004	          0.01000002	          0.39605792	
          0.80674770	         -6.44260619	          3.60053376	         -7.48710748	          0.86180874	          0.93903018	          0.01038300	         -7.24535156	         -4.55996876	          0.70601626	        -29.41346360	          4.01391491	         38.49544775	         28.42712350	          1.45946763	         -5.07172450	        -12.21713803	          2.75890075	          0.04419622	         -2.33260888	         -5.26341334	          2.87740864	          0.15903834	          0.00999999	          0.02015047	          0.00999999	          0.10606506	          0.01419179	          0.07231307	          0.01000000	          0.18227646	          0.00999999	          0.00999999	          0.08168722	          0.06727006	          0.01766074	          0.04915324	          0.03293615	          0.00999999	          0.12029798	          0.07973182	          0.04350418	          0.04234979	          0.09789737	          0.01887733	          0.00999999	          0.18716702	          0.01000000	          0.01000000	          0.38246322	
          0.82090117	         -6.40398238	          3.31105839	         -7.18769491	          0.87846344	          0.94182271	          0.00932784	         -5.34992634	         -4.35552415	          0.13262051	        -34.12544481	          2.24550096	         37.06760494	         27.47526731	          1.45205554	         -4.96893016	        -12.45367381	          2.84508284	          0.03933702	         -2.28715920	         -5.47301199	          2.83883273	          0.16510321	          0.00999999	          0.04086982	          0.00999999	          0.11820791	          0.01148304	          0.08005545	          0.00999999	          0.14748586	          0.00999999	          0.00999999	          0.06609581	          0.05443041	          0.05395821	          0.03977150	          0.02664972	          0.00999999	          0.10291989	          0.06451363	          0.04146405	          0.03426661	          0.09256285	          0.01527426	          0.00999999	          0.19288543	          0.00999999	          0.00999999	          0.36553795	
          0.83505464	         -6.34904238	          2.95860489	         -6.84436274	          0.89471478	          0.94505040	          0.00829936	         -3.31160936	         -4.10933534	         -0.43185007	        -38.91944927	          0.58671777	         34.22922853	         26.37752477	          1.39702438	         -4.78827728	        -12.44505910	          2.99154767	          0.04319668	         -2.29082629	         -5.61442481	          2.76986464	          0.17076185	          0.00999999	          0.06672472	          0.00999999	          0.11637035	          0.00999999	          0.07042563	          0.00999999	          0.11933564	          0.00999999	          0.00999999	          0.05348028	          0.04404143	          0.11406949	          0.03218043	          0.02156316	          0.00999999	          0.09635234	          0.05220009	          0.03770771	          0.02772623	          0.07778960	          0.01235891	          0.01000000	          0.18004677	          0.00999999	          0.00999999	          0.34493963	
          0.84920811	         -6.27800151	          2.54563184	         -6.46051229	          0.91055801	          0.94849209	          0.00728911	         -1.22736040	         -3.80956390	         -0.95406706	        -43.63296040	         -0.64810145	         29.96142784	         25.20432442	          1.28968113	         -4.50824371	        -12.30807346	          3.19199439	          0.05492218	         -2.34403192	         -5.68224352	          2.68138828	          0.18473589	          0.02707197	          0.09235515	          0.00999999	          0.09415906	          0.01000000	          0.07079117	          0.00999999	          0.09986302	          0.00999999	          0.00999999	          0.04327265	          0.03563536	          0.19273174	          0.02603824	          0.01744746	          0.00999999	          0.09548406	          0.04223680	          0.03101101	          0.02243421	          0.06343850	          0.01000000	          0.01000000	          0.16339169	          0.00999999	          0.00999999	          0.32220016	
